<svg xmlns="http://www.w3.org/2000/svg" xmlns:lucid="lucid" width="420.5" height="168"><g transform="translate(-480 280)" lucid:page-tab-id="0_0"><path d="M520.1-150.82h89.17c2.24 0 4 1.82 4 4.06 0 2.23-1.76 4.05-4 4.05H520.1v-8.12zM605.22-244v40.5c0 2.22 1.8 4.04 4.05 4.04 2.23 0 4.05-1.82 4.05-4.05v-32.4c0-4.5-3.63-8.1-8.1-8.1z" stroke="#000" stroke-opacity="0" fill="#3367d6"/><path d="M605.22-244h-24.36c-2.24 0-4.06 1.8-4.06 4.05 0 2.24 1.82 4.05 4.06 4.05h24.36v-8.1z" stroke="#000" stroke-opacity="0" fill="#5c85de"/><path d="M613.28-207.52h-32.43c-2.23 0-4.05 1.8-4.05 4.05 0 2.24 1.82 4.05 4.05 4.05h32.43v-8.1zM516-207.52h32.43c2.23 0 4.05 1.8 4.05 4.05 0 2.24-1.82 4.05-4.05 4.05H516v-8.1z" stroke="#000" stroke-opacity="0" fill="#3367d6"/><path d="M524.1-244v40.5c0 2.22-1.8 4.04-4.05 4.04-2.23 0-4.05-1.82-4.05-4.05v-32.4c0-4.5 3.63-8.1 8.1-8.1z" stroke="#000" stroke-opacity="0" fill="#3367d6"/><path d="M524.06-244h24.36c2.24 0 4.06 1.8 4.06 4.05 0 2.24-1.82 4.05-4.06 4.05h-24.36v-8.1z" stroke="#000" stroke-opacity="0" fill="#5c85de"/><path d="M604.2-191.26v44.06c0 2.53 2.04 4.58 4.55 4.58 2.52 0 4.57-2.05 4.57-4.58v-34.92c0-5.06-4.1-9.14-9.13-9.14z" stroke="#000" stroke-opacity="0" fill="#3367d6"/><path d="M604.2-191.26h-22.96c-2.47 0-4.44 1.98-4.44 4.42s1.97 4.42 4.44 4.42h22.95v-8.84z" stroke="#000" stroke-opacity="0" fill="#5c85de"/><path d="M525.1-191.26v44.06c0 2.53-2.03 4.58-4.54 4.58-2.52 0-4.56-2.05-4.56-4.58v-34.92c0-5.06 4.08-9.14 9.1-9.14z" stroke="#000" stroke-opacity="0" fill="#3367d6"/><path d="M525.1-191.26h22.94c2.47 0 4.44 1.98 4.44 4.42s-1.97 4.42-4.44 4.42H525.1v-8.84z" stroke="#000" stroke-opacity="0" fill="#5c85de"/><path d="M588.96-217.27h-17.82v17.8h-8.9v-17.8H544.4v-8.9h17.8V-244h8.92v17.82h17.82v8.9zM582.67-169.26c2.38-2.38 6.23-2.38 8.6 0 2.38 2.38 2.38 6.22 0 8.6-2.37 2.38-6.22 2.38-8.6 0-2.37-2.38-2.37-6.22 0-8.6zM560.27-160.66c-2.37-2.38-2.37-6.22 0-8.6 2.38-2.38 6.23-2.38 8.6 0 2.38 2.38 2.38 6.22 0 8.6-2.37 2.38-6.22 2.38-8.6 0" stroke="#000" stroke-opacity="0" fill="#3367d6"/><path d="M560.27-180.88c-2.37-2.38-2.37-6.22 0-8.6 2.38-2.38 6.23-2.38 8.6 0 2.38 2.38 2.38 6.22 0 8.6-2.37 2.37-6.22 2.37-8.6 0" stroke="#000" stroke-opacity="0" fill="#5c85de"/><path d="M538-160.66c-2.37-2.38-2.37-6.22 0-8.6 2.38-2.38 6.23-2.38 8.6 0 2.38 2.38 2.38 6.22 0 8.6s-6.22 2.38-8.6 0" stroke="#000" stroke-opacity="0" fill="#3367d6"/><path d="M512.8-247.2v102.4h102.4v-102.4z" stroke="#000" stroke-opacity="0" fill-opacity="0"/><path d="M798.54-248.88l-18.98 3.5v25.94l18.98 4.05 19.06-7.63v-19.36l-19.06-6.48z" stroke="#000" stroke-opacity="0" fill="url(#a)"/><path d="M799.2-215.83l17.37-7c.42-.2.68-.53.8-.96v-17.5c-.05-.57-.38-1-.87-1.22l-17.56-5.97h-.8l-17.2 3.2c-.6.16-.98.6-1.02 1.2v23.42c0 .63.4 1.15 1 1.28l17.42 3.64c.3.06.56.03.86-.07z" stroke="#000" stroke-opacity="0" fill-opacity="0"/><path d="M779.56-245.36v25.97l19.2 4.07v-33.3zm8.1 23.97l-5.37-1.06v-19.97l5.36-.86zm8.37 1.54l-6.18-1v-22.83l6.18-1.06z" stroke="#000" stroke-opacity="0" fill="#341a6e"/><path d="M839.56-248.55l-18.96 3.5v25.94l18.96 4.04 18.96-7.7v-19.3l-18.96-6.5z" stroke="#000" stroke-opacity="0" fill="url(#b)"/><path d="M820.6-245.03v25.97l19.08 4.06v-33.3zm8.05 23.97l-5.4-1.06v-19.98l5.4-.86zm8.38 1.53l-6.18-1v-22.83l6.18-1.13z" stroke="#000" stroke-opacity="0" fill="#341a6e"/><path d="M779.1-213.07l-18.98 3.52v25.93l18.98 4.05 19.06-7.64v-19.37l-19.06-6.5z" stroke="#000" stroke-opacity="0" fill="url(#c)"/><path d="M760.05-209.6v25.76l19.2 4.06v-33.3zm8.05 24.03l-5.4-1.14v-19.98l5.4-.93zm8.43 1.73l-6.2-1v-23.1l6.2-1.06z" stroke="#000" stroke-opacity="0" fill="#341a6e"/><path d="M820-213.38l-18.96 3.52v25.95L820-179.8l18.96-7.73v-19.37l-18.96-6.5z" stroke="#000" stroke-opacity="0" fill="url(#d)"/><path d="M801.04-209.87v26.03l19.08 4.06v-33.3zm8 24.03l-5.35-1.13v-19.97l5.35-.93zm8.37 1.47l-6.15-1v-22.84l6.16-1.07z" stroke="#000" stroke-opacity="0" fill="#341a6e"/><path d="M860.94-213.07l-18.98 3.52v25.93l18.98 4.05L880-187.2v-19.37l-19.06-6.5z" stroke="#000" stroke-opacity="0" fill="url(#e)"/><path d="M841.96-209.54v25.7l19.2 4.06v-33.3zm8.1 24.03l-5.37-1.14v-19.97l5.36-.94zm8.37 1.46l-6.18-1v-22.83l6.18-1.07z" stroke="#000" stroke-opacity="0" fill="#341a6e"/><path d="M798.06-176.92l-18.98 3.45v25.93l18.98 4.12 19.06-7.7v-19.3l-19.06-6.5z" stroke="#000" stroke-opacity="0" fill="url(#f)"/><path d="M798.86-143.9l17.3-6.66c.54-.2.84-.66.84-1.2v-17.3c.08-.66-.26-1.25-.86-1.48l-17.54-6c-.3-.1-.57-.1-.83 0l-17.28 3.15c-.6.1-1.06.63-1.06 1.25v23.55c0 .63.4 1.15 1 1.28l17.48 3.4c.3.1.6.1.94 0z" stroke="#000" stroke-opacity="0" fill-opacity="0"/><path d="M779.08-173.52v25.97l19.2 4.13v-33.82zm8.1 24.04l-5.37-1.15v-19.95l5.38-.94zm8.37 1.52l-6.18-.98v-22.92l6.18-1.05z" stroke="#000" stroke-opacity="0" fill="#341a6e"/><path d="M839.1-176.7l-18.98 3.5v25.94l18.98 4.05 19.06-7.65v-19.36l-19.06-6.5z" stroke="#000" stroke-opacity="0" fill="url(#g)"/><path d="M820.12-173.13v25.96l19.2 4.06v-33.3zm8.1 24.03l-5.37-1.13v-19.97l5.37-.93zm8.37 1.47l-6.2-1v-22.83l6.2-1.07z" stroke="#000" stroke-opacity="0" fill="#341a6e"/><path d="M779.48-245.5v32.54l-19.48 3.4.12 25.96 18.88 4.03v32.12l19 4.13 41.24.32 18.9-7.63v-19.4l2.85-9.43 18.52-7.42v-19.83l-18.3-6.26-2.62-9.86v-19.3l-18.88-6.24-41.24-.64z" stroke="#000" stroke-opacity="0" fill-opacity="0"/><path d="M615.7-196h127.97" stroke="#3a414a" fill="none"/><path d="M615.7-195.53h-.5v-.94h.5z" stroke="#3a414a" stroke-width=".05" fill="#3a414a"/><path d="M758.43-196l-14.26 4.63v-9.26z" stroke="#3a414a" fill="#3a414a"/><defs><linearGradient gradientUnits="userSpaceOnUse" id="a" x1="760" y1="-196" x2="880" y2="-196"><stop offset="0%" stop-color="#b77af4"/><stop offset="100%" stop-color="#773adc"/></linearGradient><linearGradient gradientUnits="userSpaceOnUse" id="b" x1="760" y1="-196" x2="880" y2="-196"><stop offset="0%" stop-color="#b77af4"/><stop offset="100%" stop-color="#773adc"/></linearGradient><linearGradient gradientUnits="userSpaceOnUse" id="c" x1="760" y1="-196" x2="879.79" y2="-196"><stop offset="0%" stop-color="#b77af4"/><stop offset="100%" stop-color="#773adc"/></linearGradient><linearGradient gradientUnits="userSpaceOnUse" id="d" x1="760" y1="-196.1" x2="880" y2="-196.1"><stop offset="0%" stop-color="#b77af4"/><stop offset="100%" stop-color="#773adc"/></linearGradient><linearGradient gradientUnits="userSpaceOnUse" id="e" x1="760" y1="-196" x2="880" y2="-196"><stop offset="0%" stop-color="#b77af4"/><stop offset="100%" stop-color="#773adc"/></linearGradient><linearGradient gradientUnits="userSpaceOnUse" id="f" x1="760" y1="-196" x2="880" y2="-196"><stop offset="0%" stop-color="#b77af4"/><stop offset="100%" stop-color="#773adc"/></linearGradient><linearGradient gradientUnits="userSpaceOnUse" id="g" x1="760" y1="-196" x2="880" y2="-196"><stop offset="0%" stop-color="#b77af4"/><stop offset="100%" stop-color="#773adc"/></linearGradient></defs></g></svg>